C:/Users/Пользователь/ffmpeg/bin/ffmpeg.exe -hide_banner -y -y -r 24 -start_number 0 -start_number_range 1 -i D:/Fking programming settins make me cry/StudentLabs/L5/assets/frame%04d.png -i D:/Fking programming settins make me cry/StudentLabs/L5/assets/KritaTempPalettegen_%06d.png -lavfi [0:v][1:v]paletteuse=dither=sierra2_4a:diff_mode=none -f gif -loop 0 -gifflags +transdiff D:/Fking programming settins make me cry/StudentLabs/L5/assets/Untitled.gif
=====================================================
Input #0, image2, from 'D:/Fking programming settins make me cry/StudentLabs/L5/assets/frame%04d.png':
  Duration: 00:00:00.08, start: 0.000000, bitrate: N/A
  Stream #0:0: Video: png, rgba(pc, gbr/unknown/unknown), 100x100 [SAR 11811:11811 DAR 1:1], 25 fps, 25 tbr, 25 tbn
Input #1, image2, from 'D:/Fking programming settins make me cry/StudentLabs/L5/assets/KritaTempPalettegen_%06d.png':
  Duration: 00:00:00.04, start: 0.000000, bitrate: N/A
  Stream #1:0: Video: png, rgba(pc, gbr/unknown/unknown), 16x16 [SAR 1:1 DAR 1:1], 25 fps, 25 tbr, 25 tbn
Stream mapping:
  Stream #0:0 (png) -> paletteuse
  Stream #1:0 (png) -> paletteuse
  paletteuse:default -> Stream #0:0 (gif)
Press [q] to stop, [?] for help
Output #0, gif, to 'D:/Fking programming settins make me cry/StudentLabs/L5/assets/Untitled.gif':
  Metadata:
    encoder         : Lavf61.7.100
  Stream #0:0: Video: gif, pal8(pc, gbr/unknown/unknown, progressive), 100x100 [SAR 1:1 DAR 1:1], q=2-31, 200 kb/s, 24 fps, 100 tbn
      Metadata:
        encoder         : Lavc61.19.100 gif
[out#0/gif @ 000002118de86ac0] video:1KiB audio:0KiB subtitle:0KiB other streams:0KiB global headers:0KiB muxing overhead: 1.728608%
frame=    2 fps=0.0 q=-0.0 Lsize=       1KiB time=00:00:00.08 bitrate= 113.0kbits/s speed=12.9x    
